# xmcd CD database file
#
# Track frame offsets:
#	150
#	18955
#	32080
#	52567
#	76415
#	98575
#	122417
#	144762
#	168987
#	190087
#	203350
#	221232
#	252712
#
# Disc length: 3718 seconds
#
# Revision: 0
# Processed by: cddbd v1.5.2PL0 Copyright (c) Steve Scherf et al.
# Submitted via: CDex 1.70beta2
#
DISCID=9d0e840d
DTITLE=CAROL - CAROL - 01
DYEAR=2008
DGENRE=Salsa
TTITLE0=A Day In The Girl's Life
TTITLE1=Garol
TTITLE2=Chase In Labyrinth
TTITLE3=Gia Corm Fillippo Dia
TTITLE4=Come On Everybody
TTITLE5=Beyond The Time
TTITLE6=Seven Days War
TTITLE7=You're The Bast
TTITLE8=Winter Comes Around
TTITLE9=In The Forest
TTITLE10=Carol Theme
TTITLE11=Just One Victory
TTITLE12=Still Love Her
EXTD=YEAR: 2008
EXTT0=
EXTT1=
EXTT2=
EXTT3=
EXTT4=
EXTT5=
EXTT6=
EXTT7=
EXTT8=
EXTT9=
EXTT10=
EXTT11=
EXTT12=
PLAYORDER=
